<svg width="196" height="196" viewBox="0 0 196 196" fill="none" xmlns="http://www.w3.org/2000/svg">
<g filter="url(#filter0_d_657_3551)">
<circle cx="91" cy="91" r="84" fill="#F0F5F8"/>
</g>
<path d="M87.7851 11.3934V20.4004H86.6469V12.8146L84.3521 13.6513V12.6238L87.6067 11.3934H87.7851ZM97.0013 19.4652V20.4004H91.1381V19.5821L94.0728 16.3152C94.4337 15.9133 94.7126 15.5729 94.9095 15.2939C95.1105 15.0109 95.25 14.7587 95.3279 14.5372C95.4099 14.3116 95.4509 14.0819 95.4509 13.8481C95.4509 13.5528 95.3894 13.2862 95.2664 13.0483C95.1474 12.8063 94.971 12.6136 94.7373 12.47C94.5035 12.3265 94.2205 12.2547 93.8882 12.2547C93.4904 12.2547 93.1582 12.3326 92.8916 12.4885C92.6291 12.6402 92.4322 12.8535 92.3009 13.1283C92.1697 13.4031 92.1041 13.7189 92.1041 14.0758H90.9659C90.9659 13.5713 91.0766 13.1099 91.2981 12.6915C91.5196 12.2731 91.8477 11.9409 92.2825 11.6948C92.7172 11.4446 93.2525 11.3195 93.8882 11.3195C94.4542 11.3195 94.9382 11.42 95.3402 11.621C95.7421 11.8179 96.0498 12.0968 96.263 12.4577C96.4804 12.8146 96.5891 13.2329 96.5891 13.7128C96.5891 13.9753 96.544 14.2419 96.4538 14.5126C96.3676 14.7792 96.2466 15.0458 96.0908 15.3124C95.939 15.579 95.7606 15.8415 95.5555 16.0999C95.3545 16.3583 95.1392 16.6126 94.9095 16.8628L92.5101 19.4652H97.0013Z" fill="black"/>
<path d="M162.706 87.4612H163.518C163.916 87.4612 164.244 87.3956 164.502 87.2644C164.765 87.129 164.959 86.9465 165.087 86.7168C165.218 86.483 165.283 86.2205 165.283 85.9293C165.283 85.5848 165.226 85.2956 165.111 85.0618C164.996 84.828 164.824 84.6517 164.594 84.5327C164.365 84.4138 164.073 84.3543 163.721 84.3543C163.401 84.3543 163.118 84.4179 162.872 84.545C162.63 84.6681 162.439 84.8444 162.3 85.0741C162.164 85.3038 162.097 85.5745 162.097 85.8862H160.958C160.958 85.431 161.073 85.0167 161.303 84.6435C161.533 84.2702 161.855 83.9729 162.269 83.7514C162.687 83.5299 163.171 83.4191 163.721 83.4191C164.262 83.4191 164.736 83.5155 165.142 83.7083C165.548 83.897 165.864 84.18 166.089 84.5573C166.315 84.9306 166.428 85.3961 166.428 85.9539C166.428 86.1795 166.374 86.4215 166.268 86.6799C166.165 86.9342 166.003 87.1721 165.782 87.3936C165.564 87.615 165.281 87.7976 164.933 87.9411C164.584 88.0806 164.166 88.1503 163.678 88.1503H162.706V87.4612ZM162.706 88.3964V87.7135H163.678C164.248 87.7135 164.719 87.7812 165.093 87.9165C165.466 88.0519 165.759 88.2323 165.973 88.4579C166.19 88.6835 166.342 88.9316 166.428 89.2023C166.518 89.4689 166.563 89.7355 166.563 90.0021C166.563 90.4205 166.491 90.7917 166.348 91.1157C166.208 91.4397 166.009 91.7146 165.751 91.9401C165.497 92.1657 165.197 92.3359 164.853 92.4508C164.508 92.5656 164.133 92.623 163.727 92.623C163.337 92.623 162.97 92.5677 162.626 92.4569C162.285 92.3462 161.984 92.1862 161.721 91.9771C161.459 91.7638 161.254 91.5033 161.106 91.1957C160.958 90.884 160.885 90.5292 160.885 90.1313H162.023C162.023 90.4431 162.09 90.7158 162.226 90.9496C162.365 91.1834 162.562 91.3659 162.816 91.4972C163.075 91.6243 163.378 91.6879 163.727 91.6879C164.076 91.6879 164.375 91.6284 164.625 91.5095C164.879 91.3864 165.074 91.2019 165.21 90.9558C165.349 90.7097 165.419 90.4 165.419 90.0268C165.419 89.6535 165.341 89.3479 165.185 89.1101C165.029 88.8681 164.808 88.6896 164.521 88.5748C164.238 88.4559 163.903 88.3964 163.518 88.3964H162.706Z" fill="black"/>
<path d="M17.9766 91.5464H18.0935C18.7497 91.5464 19.2829 91.4541 19.6931 91.2695C20.1032 91.085 20.419 90.8368 20.6405 90.5251C20.862 90.2134 21.0138 89.8627 21.0958 89.473C21.1778 89.0793 21.2188 88.6753 21.2188 88.261V86.8891C21.2188 86.483 21.1717 86.1221 21.0773 85.8063C20.9871 85.4904 20.86 85.2259 20.6959 85.0126C20.5359 84.7993 20.3534 84.6373 20.1483 84.5266C19.9433 84.4158 19.7259 84.3604 19.4962 84.3604C19.2337 84.3604 18.9979 84.4138 18.7887 84.5204C18.5836 84.6229 18.4093 84.7686 18.2657 84.9572C18.1263 85.1459 18.0196 85.3674 17.9458 85.6217C17.872 85.876 17.8351 86.1528 17.8351 86.4522C17.8351 86.7188 17.8679 86.9772 17.9335 87.2274C17.9991 87.4776 18.0996 87.7032 18.235 87.9042C18.3703 88.1052 18.5385 88.2651 18.7395 88.3841C18.9445 88.4989 19.1845 88.5563 19.4593 88.5563C19.7136 88.5563 19.9515 88.5071 20.1729 88.4087C20.3985 88.3062 20.5975 88.1688 20.7697 87.9965C20.9461 87.8201 21.0855 87.6212 21.1881 87.3997C21.2947 87.1782 21.3562 86.9465 21.3727 86.7045H21.9141C21.9141 87.0449 21.8464 87.3813 21.711 87.7135C21.5798 88.0416 21.3952 88.341 21.1573 88.6117C20.9194 88.8824 20.6405 89.0998 20.3206 89.2639C20.0007 89.4238 19.6521 89.5038 19.2747 89.5038C18.8317 89.5038 18.4482 89.4177 18.1242 89.2454C17.8002 89.0731 17.5336 88.8435 17.3244 88.5563C17.1193 88.2692 16.9655 87.9493 16.863 87.5966C16.7646 87.2397 16.7153 86.8788 16.7153 86.5138C16.7153 86.0872 16.7748 85.6873 16.8937 85.3141C17.0127 84.9408 17.1891 84.6127 17.4229 84.3297C17.6566 84.0426 17.9458 83.819 18.2903 83.6591C18.639 83.4991 19.0409 83.4191 19.4962 83.4191C20.0089 83.4191 20.4457 83.5217 20.8066 83.7268C21.1676 83.9318 21.4608 84.2066 21.6864 84.5512C21.9161 84.8957 22.0843 85.2833 22.1909 85.714C22.2976 86.1446 22.3509 86.5876 22.3509 87.0429V87.4551C22.3509 87.9186 22.3201 88.3902 22.2586 88.8701C22.2012 89.3459 22.0884 89.8012 21.9202 90.2359C21.7562 90.6707 21.5162 91.0604 21.2004 91.4049C20.8846 91.7453 20.4724 92.016 19.9638 92.217C19.4593 92.4139 18.8358 92.5123 18.0935 92.5123H17.9766V91.5464Z" fill="black"/>
<path d="M89.8125 160.53H89.911V161.496H89.8125C89.2096 161.496 88.7051 161.594 88.2991 161.791C87.893 161.984 87.571 162.244 87.3332 162.572C87.0953 162.896 86.923 163.262 86.8164 163.668C86.7138 164.074 86.6625 164.486 86.6625 164.904V166.221C86.6625 166.619 86.7097 166.971 86.8041 167.279C86.8984 167.583 87.0276 167.839 87.1917 168.048C87.3557 168.257 87.5403 168.415 87.7454 168.522C87.9545 168.628 88.1719 168.682 88.3975 168.682C88.66 168.682 88.8938 168.633 89.0989 168.534C89.304 168.432 89.4762 168.29 89.6157 168.11C89.7592 167.925 89.8679 167.708 89.9417 167.457C90.0156 167.207 90.0525 166.932 90.0525 166.633C90.0525 166.366 90.0197 166.11 89.9541 165.864C89.8884 165.614 89.7879 165.392 89.6526 165.2C89.5172 165.003 89.347 164.849 89.1419 164.738C88.941 164.623 88.701 164.566 88.4221 164.566C88.1063 164.566 87.811 164.644 87.5362 164.8C87.2655 164.951 87.0419 165.152 86.8656 165.403C86.6933 165.649 86.5949 165.917 86.5703 166.208L85.9673 166.202C86.0248 165.743 86.1314 165.351 86.2873 165.027C86.4472 164.699 86.6441 164.433 86.8779 164.227C87.1158 164.018 87.3803 163.867 87.6715 163.772C87.9668 163.674 88.2786 163.625 88.6067 163.625C89.0538 163.625 89.4393 163.709 89.7633 163.877C90.0874 164.045 90.354 164.271 90.5631 164.554C90.7723 164.832 90.9261 165.148 91.0246 165.501C91.1271 165.85 91.1784 166.208 91.1784 166.578C91.1784 167 91.1189 167.396 91 167.765C90.881 168.134 90.7026 168.458 90.4647 168.737C90.2309 169.016 89.9417 169.233 89.5972 169.389C89.2527 169.545 88.8528 169.623 88.3975 169.623C87.9135 169.623 87.4911 169.525 87.1301 169.328C86.7692 169.127 86.4698 168.86 86.2319 168.528C85.994 168.196 85.8156 167.827 85.6966 167.421C85.5777 167.014 85.5182 166.602 85.5182 166.184V165.649C85.5182 165.017 85.5818 164.398 85.7089 163.791C85.8361 163.184 86.0555 162.634 86.3672 162.142C86.6831 161.65 87.1199 161.258 87.6777 160.967C88.2355 160.675 88.9471 160.53 89.8125 160.53Z" fill="black"/>
<line x1="151.699" y1="51.5131" x2="158.699" y2="46.6131" stroke="black" stroke-width="0.7"/>
<line x1="126.394" y1="27.1298" x2="129.894" y2="20.8298" stroke="black" stroke-width="0.7"/>
<line x1="55.8004" y1="27.4162" x2="52.1969" y2="21.1748" stroke="black" stroke-width="0.7"/>
<line x1="29.8665" y1="53.6058" x2="23.6251" y2="50.0024" stroke="black" stroke-width="0.7"/>
<line x1="156.566" y1="125.706" x2="150.325" y2="122.103" stroke="black" stroke-width="0.7"/>
<line x1="129.3" y1="153.416" x2="125.697" y2="147.175" stroke="black" stroke-width="0.7"/>
<line x1="24.9992" y1="127.114" x2="31.9992" y2="122.214" stroke="black" stroke-width="0.7"/>
<line x1="52.1969" y1="153.021" x2="56.5824" y2="145.425" stroke="black" stroke-width="0.7"/>
<rect x="44.8" y="86.0996" width="51.1" height="2.1" rx="1.05" fill="#090909"/>
<path d="M141.396 56.603C141.592 56.936 141.481 57.3652 141.148 57.5614L85.3139 90.4646C84.9808 90.6609 84.5517 90.55 84.3554 90.217C84.1592 89.8839 84.2701 89.4548 84.6031 89.2585L140.437 56.3553C140.77 56.159 141.2 56.2699 141.396 56.603Z" fill="#FC3E55" fill-opacity="0.84"/>
<defs>
<filter id="filter0_d_657_3551" x="0" y="0" width="196" height="196" filterUnits="userSpaceOnUse" color-interpolation-filters="sRGB">
<feFlood flood-opacity="0" result="BackgroundImageFix"/>
<feColorMatrix in="SourceAlpha" type="matrix" values="0 0 0 0 0 0 0 0 0 0 0 0 0 0 0 0 0 0 127 0" result="hardAlpha"/>
<feOffset dx="7" dy="7"/>
<feGaussianBlur stdDeviation="7"/>
<feColorMatrix type="matrix" values="0 0 0 0 0 0 0 0 0 0 0 0 0 0 0 0 0 0 0.25 0"/>
<feBlend mode="normal" in2="BackgroundImageFix" result="effect1_dropShadow_657_3551"/>
<feBlend mode="normal" in="SourceGraphic" in2="effect1_dropShadow_657_3551" result="shape"/>
</filter>
</defs>
</svg>
