<svg width="26" height="27" viewBox="0 0 26 27" fill="none" xmlns="http://www.w3.org/2000/svg">
<path d="M6.03613 16.4541C3.00684 16.4541 0.922852 14.5312 0.922852 11.7598C0.922852 9.5791 2.30859 7.80664 4.40332 7.19434C4.7793 3.15527 8.15234 0.0615234 12.1699 0.0615234C15.2314 0.0615234 17.7559 1.62988 19.1416 4.41211C22.8262 4.37988 25.6191 6.96875 25.6191 10.417C25.6191 13.8115 22.9229 16.4541 19.4316 16.4541H6.03613ZM16.0156 20.5576C16.3271 20.5576 16.4238 20.8584 16.1875 21.0947L11.1494 26.0791C11.0312 26.1973 10.9131 26.2188 10.8164 26.1865C10.709 26.1436 10.6768 26.0146 10.7412 25.875L12.1914 22.3408H10.29C10.0107 22.3408 9.89258 22.1797 10.0107 21.9111L11.5039 18.5059C11.6006 18.2803 11.708 18.1729 12.0195 18.1729H14.5547C14.791 18.1729 14.8877 18.3555 14.7588 18.5918L13.7383 20.5576H16.0156Z" fill="#AEAEAE"/>
</svg>
