<svg width="33" height="32" viewBox="0 0 33 32" fill="none" xmlns="http://www.w3.org/2000/svg">
<path d="M21.3223 4.96484C20.7852 4.96484 20.3447 4.51367 20.3447 3.9873V1.77441C20.3447 1.22656 20.7852 0.786133 21.3223 0.786133C21.8594 0.786133 22.2891 1.22656 22.2891 1.77441V3.9873C22.2891 4.51367 21.8594 4.96484 21.3223 4.96484ZM14.9307 7.04883L13.3623 5.46973C12.9863 5.09375 12.9863 4.4707 13.3623 4.09473C13.7383 3.71875 14.3613 3.71875 14.7373 4.09473L16.3164 5.68457C16.6924 6.06055 16.6816 6.67285 16.3164 7.04883C15.9512 7.4248 15.3174 7.43555 14.9307 7.04883ZM26.3174 7.04883C25.9521 6.67285 25.9414 6.0498 26.3281 5.68457L27.9072 4.10547C28.2832 3.71875 28.9062 3.71875 29.2822 4.09473C29.6582 4.4707 29.6582 5.09375 29.2715 5.48047L27.7139 7.04883C27.3271 7.43555 26.6934 7.4248 26.3174 7.04883ZM24.1904 16.6416C23.8252 13.3867 21.4297 11.1523 17.9492 10.8838C17.6162 10.25 17.2188 9.73438 16.7568 9.26172C17.6484 7.71484 19.3564 6.66211 21.3223 6.66211C24.3086 6.66211 26.6934 9.06836 26.6934 12.0439C26.6934 13.9453 25.7373 15.5889 24.1904 16.6416ZM5.44531 22.8613C2.75977 22.8613 0.922852 21.1748 0.922852 18.7041C0.922852 16.7705 2.11523 15.1914 3.98438 14.6543C4.30664 11.0557 7.31445 8.30566 10.8916 8.30566C13.6953 8.30566 15.8975 9.80957 17.1113 12.1299C20.3877 12.1406 22.8262 14.4287 22.8262 17.4902C22.8262 20.5303 20.4629 22.8613 17.4014 22.8613H5.44531ZM29.3682 13.0215C28.8418 13.0215 28.3906 12.5918 28.3906 12.0547C28.3906 11.5176 28.8418 11.0771 29.3682 11.0771H31.5811C32.1182 11.0771 32.5586 11.5176 32.5586 12.0547C32.5586 12.5918 32.1182 13.0215 31.5811 13.0215H29.3682ZM27.9072 20.0146L26.3281 18.4355C25.9521 18.0703 25.9414 17.4365 26.3174 17.0605C26.6934 16.6846 27.3164 16.6953 27.6924 17.0605L29.2715 18.6396C29.6475 19.0156 29.6475 19.6387 29.2715 20.0146C28.8955 20.3906 28.2832 20.3906 27.9072 20.0146ZM14.0391 28.0928C13.8457 28.4365 13.4268 28.5547 13.083 28.3613C12.7178 28.1572 12.6318 27.749 12.8252 27.416L14.2217 24.999C14.4365 24.6338 14.8232 24.5156 15.1777 24.7197C15.5322 24.9238 15.6396 25.3428 15.4248 25.6865L14.0391 28.0928ZM5.49902 28.1035C5.29492 28.4473 4.87598 28.5654 4.53223 28.3721C4.17773 28.168 4.08105 27.749 4.27441 27.416L5.6709 24.999C5.88574 24.6445 6.2832 24.5264 6.6377 24.7305C6.98145 24.9346 7.08887 25.3535 6.88477 25.6973L5.49902 28.1035ZM17.4121 31.1113C17.2188 31.4551 16.7998 31.584 16.4453 31.3799C16.0908 31.1758 15.9941 30.7676 16.1982 30.4346L17.5947 28.0176C17.7988 27.6523 18.1963 27.5342 18.5508 27.7383C18.9053 27.9424 19.002 28.3613 18.7979 28.7158L17.4121 31.1113ZM8.87207 31.1221C8.66797 31.4658 8.24902 31.584 7.90527 31.3906C7.54004 31.1865 7.4541 30.7783 7.64746 30.4453L9.04395 28.0283C9.25879 27.6631 9.64551 27.5449 10 27.749C10.3545 27.9531 10.4619 28.3721 10.2578 28.7158L8.87207 31.1221Z" fill="#AEAEAE"/>
</svg>
