<svg width="151" height="151" viewBox="0 0 151 151" fill="none" xmlns="http://www.w3.org/2000/svg">
<g clip-path="url(#clip0_671_6769)">
<path opacity="0.5" d="M75.2368 0.638672L75.3819 8.9229" stroke="#0E0E0E" stroke-width="0.725414" stroke-miterlimit="10"/>
<path opacity="0.1" d="M71.312 0.746094L71.8923 9.00856" stroke="#0E0E0E" stroke-width="0.725414" stroke-miterlimit="10"/>
<path opacity="0.1" d="M67.4019 1.05273L68.4102 9.27893" stroke="#0E0E0E" stroke-width="0.725414" stroke-miterlimit="10"/>
<path opacity="0.1" d="M63.5146 1.57422L64.9582 9.72787" stroke="#0E0E0E" stroke-width="0.725414" stroke-miterlimit="10"/>
<path opacity="0.1" d="M59.6616 2.29102L61.5259 10.3576" stroke="#0E0E0E" stroke-width="0.725414" stroke-miterlimit="10"/>
<path opacity="0.1" d="M55.8472 3.20703L58.1322 11.1721" stroke="#0E0E0E" stroke-width="0.725414" stroke-miterlimit="10"/>
<path opacity="0.1" d="M52.0884 4.32227L54.7869 12.1567" stroke="#0E0E0E" stroke-width="0.725414" stroke-miterlimit="10"/>
<path opacity="0.1" d="M48.3965 5.63672L51.494 13.3188" stroke="#0E0E0E" stroke-width="0.725414" stroke-miterlimit="10"/>
<path opacity="0.1" d="M44.77 7.14648L48.2738 14.6545" stroke="#0E0E0E" stroke-width="0.725414" stroke-miterlimit="10"/>
<path opacity="0.1" d="M41.2295 8.83594L45.125 16.1481" stroke="#0E0E0E" stroke-width="0.725414" stroke-miterlimit="10"/>
<path opacity="0.2" d="M37.7905 10.707L42.056 17.8088" stroke="#0E0E0E" stroke-width="0.725414" stroke-miterlimit="10"/>
<path opacity="0.1" d="M34.4473 12.7617L39.0754 19.6314" stroke="#0E0E0E" stroke-width="0.725414" stroke-miterlimit="10"/>
<path opacity="0.1" d="M31.2188 14.9863L36.2023 21.6021" stroke="#0E0E0E" stroke-width="0.725414" stroke-miterlimit="10"/>
<path opacity="0.1" d="M28.1064 17.3809L33.431 23.721" stroke="#0E0E0E" stroke-width="0.725414" stroke-miterlimit="10"/>
<path opacity="0.1" d="M25.1255 19.9277L30.7765 25.9849" stroke="#0E0E0E" stroke-width="0.725414" stroke-miterlimit="10"/>
<path opacity="0.1" d="M22.2817 22.6328L28.2446 28.3853" stroke="#0E0E0E" stroke-width="0.725414" stroke-miterlimit="10"/>
<path opacity="0.1" d="M19.5903 25.4785L25.8434 30.9119" stroke="#0E0E0E" stroke-width="0.725414" stroke-miterlimit="10"/>
<path opacity="0.1" d="M17.0439 28.4648L23.5727 33.5645" stroke="#0E0E0E" stroke-width="0.725414" stroke-miterlimit="10"/>
<path opacity="0.1" d="M14.6577 31.5781L21.4476 36.3296" stroke="#0E0E0E" stroke-width="0.725414" stroke-miterlimit="10"/>
<path opacity="0.1" d="M12.438 34.8105L19.4672 39.1993" stroke="#0E0E0E" stroke-width="0.725414" stroke-miterlimit="10"/>
<path opacity="0.1" d="M10.3926 38.1562L17.6395 42.175" stroke="#0E0E0E" stroke-width="0.725414" stroke-miterlimit="10"/>
<path opacity="0.2" d="M8.52783 41.6016L15.9706 45.2359" stroke="#0E0E0E" stroke-width="0.725414" stroke-miterlimit="10"/>
<path opacity="0.1" d="M6.84521 45.1426L14.4693 48.3852" stroke="#0E0E0E" stroke-width="0.725414" stroke-miterlimit="10"/>
<path opacity="0.1" d="M5.34424 48.7695L13.1279 51.6059" stroke="#0E0E0E" stroke-width="0.725414" stroke-miterlimit="10"/>
<path opacity="0.1" d="M4.03711 52.4707L11.9586 54.8936" stroke="#0E0E0E" stroke-width="0.725414" stroke-miterlimit="10"/>
<path opacity="0.1" d="M2.92822 56.2266L10.9658 58.236" stroke="#0E0E0E" stroke-width="0.725414" stroke-miterlimit="10"/>
<path opacity="0.1" d="M2.01367 60.043L10.1456 61.6244" stroke="#0E0E0E" stroke-width="0.725414" stroke-miterlimit="10"/>
<path opacity="0.1" d="M1.30273 63.9023L9.50716 65.0557" stroke="#0E0E0E" stroke-width="0.725414" stroke-miterlimit="10"/>
<path opacity="0.1" d="M0.794922 67.791L9.05013 68.5164" stroke="#0E0E0E" stroke-width="0.725414" stroke-miterlimit="10"/>
<path opacity="0.1" d="M0.49707 71.7012L8.77404 71.9913" stroke="#0E0E0E" stroke-width="0.725414" stroke-miterlimit="10"/>
<path opacity="0.5" d="M0.395996 75.6255L8.68022 75.4805" stroke="#0E0E0E" stroke-width="0.725414" stroke-miterlimit="10"/>
<path opacity="0.1" d="M0.504883 79.5432L8.76735 78.9629" stroke="#0E0E0E" stroke-width="0.725414" stroke-miterlimit="10"/>
<path opacity="0.1" d="M0.80957 83.4517L9.03576 82.4434" stroke="#0E0E0E" stroke-width="0.725414" stroke-miterlimit="10"/>
<path opacity="0.1" d="M1.33154 87.3387L9.48519 85.9023" stroke="#0E0E0E" stroke-width="0.725414" stroke-miterlimit="10"/>
<path opacity="0.1" d="M2.05029 91.193L10.1169 89.3359" stroke="#0E0E0E" stroke-width="0.725414" stroke-miterlimit="10"/>
<path opacity="0.1" d="M2.96338 95.0077L10.9284 92.7227" stroke="#0E0E0E" stroke-width="0.725414" stroke-miterlimit="10"/>
<path opacity="0.1" d="M4.08105 98.7669L11.9155 96.0684" stroke="#0E0E0E" stroke-width="0.725414" stroke-miterlimit="10"/>
<path opacity="0.1" d="M5.39355 102.464L13.0757 99.3594" stroke="#0E0E0E" stroke-width="0.725414" stroke-miterlimit="10"/>
<path opacity="0.1" d="M6.90332 106.084L14.4114 102.58" stroke="#0E0E0E" stroke-width="0.725414" stroke-miterlimit="10"/>
<path opacity="0.2" d="M8.59375 109.626L15.9059 105.738" stroke="#0E0E0E" stroke-width="0.725414" stroke-miterlimit="10"/>
<path opacity="0.1" d="M10.4648 113.07L17.5666 108.797" stroke="#0E0E0E" stroke-width="0.725414" stroke-miterlimit="10"/>
<path opacity="0.1" d="M12.5181 116.407L19.3877 111.779" stroke="#0E0E0E" stroke-width="0.725414" stroke-miterlimit="10"/>
<path opacity="0.1" d="M14.7446 119.643L21.3604 114.652" stroke="#0E0E0E" stroke-width="0.725414" stroke-miterlimit="10"/>
<path opacity="0.1" d="M17.1387 122.746L23.4788 117.422" stroke="#0E0E0E" stroke-width="0.725414" stroke-miterlimit="10"/>
<path opacity="0.1" d="M19.6855 125.727L25.7428 120.076" stroke="#0E0E0E" stroke-width="0.725414" stroke-miterlimit="10"/>
<path opacity="0.1" d="M22.3906 128.574L28.1432 122.611" stroke="#0E0E0E" stroke-width="0.725414" stroke-miterlimit="10"/>
<path opacity="0.1" d="M25.2339 131.271L30.6672 125.018" stroke="#0E0E0E" stroke-width="0.725414" stroke-miterlimit="10"/>
<path opacity="0.1" d="M28.2227 133.81L33.3223 127.281" stroke="#0E0E0E" stroke-width="0.725414" stroke-miterlimit="10"/>
<path opacity="0.1" d="M31.335 136.195L36.0864 129.412" stroke="#0E0E0E" stroke-width="0.725414" stroke-miterlimit="10"/>
<path opacity="0.1" d="M34.5698 138.416L38.9586 131.387" stroke="#0E0E0E" stroke-width="0.725414" stroke-miterlimit="10"/>
<path opacity="0.2" d="M37.9146 140.462L41.9333 133.215" stroke="#0E0E0E" stroke-width="0.725414" stroke-miterlimit="10"/>
<path opacity="0.1" d="M41.3604 142.326L44.9947 134.883" stroke="#0E0E0E" stroke-width="0.725414" stroke-miterlimit="10"/>
<path opacity="0.1" d="M44.8994 144.016L48.142 136.385" stroke="#0E0E0E" stroke-width="0.725414" stroke-miterlimit="10"/>
<path opacity="0.1" d="M48.5269 145.512L51.3632 137.729" stroke="#0E0E0E" stroke-width="0.725414" stroke-miterlimit="10"/>
<path opacity="0.1" d="M52.2271 146.816L54.6499 138.895" stroke="#0E0E0E" stroke-width="0.725414" stroke-miterlimit="10"/>
<path opacity="0.1" d="M55.9844 147.928L57.9938 139.891" stroke="#0E0E0E" stroke-width="0.725414" stroke-miterlimit="10"/>
<path opacity="0.1" d="M59.8003 148.841L61.3817 140.709" stroke="#0E0E0E" stroke-width="0.725414" stroke-miterlimit="10"/>
<path opacity="0.1" d="M63.6597 149.55L64.8131 141.346" stroke="#0E0E0E" stroke-width="0.725414" stroke-miterlimit="10"/>
<path opacity="0.1" d="M67.5474 150.06L68.2728 141.805" stroke="#0E0E0E" stroke-width="0.725414" stroke-miterlimit="10"/>
<path opacity="0.1" d="M71.4575 150.364L71.7477 142.08" stroke="#0E0E0E" stroke-width="0.725414" stroke-miterlimit="10"/>
<path opacity="0.5" d="M75.3819 150.459L75.2368 142.182" stroke="#0E0E0E" stroke-width="0.725414" stroke-miterlimit="10"/>
<path opacity="0.1" d="M79.2991 150.356L78.7188 142.094" stroke="#0E0E0E" stroke-width="0.725414" stroke-miterlimit="10"/>
<path opacity="0.1" d="M83.2095 150.047L82.2012 141.82" stroke="#0E0E0E" stroke-width="0.725414" stroke-miterlimit="10"/>
<path opacity="0.1" d="M87.0974 149.528L85.6611 141.367" stroke="#0E0E0E" stroke-width="0.725414" stroke-miterlimit="10"/>
<path opacity="0.1" d="M90.9493 148.812L89.0923 140.738" stroke="#0E0E0E" stroke-width="0.725414" stroke-miterlimit="10"/>
<path opacity="0.1" d="M94.766 147.891L92.481 139.926" stroke="#0E0E0E" stroke-width="0.725414" stroke-miterlimit="10"/>
<path opacity="0.1" d="M98.5223 146.774L95.8237 138.939" stroke="#0E0E0E" stroke-width="0.725414" stroke-miterlimit="10"/>
<path opacity="0.1" d="M102.222 145.461L99.1172 137.779" stroke="#0E0E0E" stroke-width="0.725414" stroke-miterlimit="10"/>
<path opacity="0.1" d="M105.842 143.957L102.338 136.449" stroke="#0E0E0E" stroke-width="0.725414" stroke-miterlimit="10"/>
<path opacity="0.2" d="M109.383 142.261L105.495 134.949" stroke="#0E0E0E" stroke-width="0.725414" stroke-miterlimit="10"/>
<path opacity="0.2" d="M112.828 140.389L108.555 133.287" stroke="#0E0E0E" stroke-width="0.725414" stroke-miterlimit="10"/>
<path opacity="0.1" d="M116.165 138.336L111.537 131.467" stroke="#0E0E0E" stroke-width="0.725414" stroke-miterlimit="10"/>
<path opacity="0.1" d="M119.401 136.108L114.41 129.492" stroke="#0E0E0E" stroke-width="0.725414" stroke-miterlimit="10"/>
<path opacity="0.1" d="M122.504 133.722L117.18 127.375" stroke="#0E0E0E" stroke-width="0.725414" stroke-miterlimit="10"/>
<path opacity="0.1" d="M125.486 131.17L119.835 125.113" stroke="#0E0E0E" stroke-width="0.725414" stroke-miterlimit="10"/>
<path opacity="0.1" d="M128.33 128.469L122.367 122.709" stroke="#0E0E0E" stroke-width="0.725414" stroke-miterlimit="10"/>
<path opacity="0.1" d="M131.028 125.619L124.775 120.186" stroke="#0E0E0E" stroke-width="0.725414" stroke-miterlimit="10"/>
<path opacity="0.1" d="M133.567 122.639L127.039 117.539" stroke="#0E0E0E" stroke-width="0.725414" stroke-miterlimit="10"/>
<path opacity="0.1" d="M135.953 119.519L129.17 114.768" stroke="#0E0E0E" stroke-width="0.725414" stroke-miterlimit="10"/>
<path opacity="0.1" d="M138.174 116.291L131.145 111.895" stroke="#0E0E0E" stroke-width="0.725414" stroke-miterlimit="10"/>
<path opacity="0.2" d="M140.219 112.939L132.972 108.928" stroke="#0E0E0E" stroke-width="0.725414" stroke-miterlimit="10"/>
<path opacity="0.1" d="M142.084 109.496L134.641 105.861" stroke="#0E0E0E" stroke-width="0.725414" stroke-miterlimit="10"/>
<path opacity="0.1" d="M143.775 105.954L136.144 102.719" stroke="#0E0E0E" stroke-width="0.725414" stroke-miterlimit="10"/>
<path opacity="0.1" d="M145.268 102.329L137.484 99.5" stroke="#0E0E0E" stroke-width="0.725414" stroke-miterlimit="10"/>
<path opacity="0.1" d="M146.574 98.628L138.652 96.2051" stroke="#0E0E0E" stroke-width="0.725414" stroke-miterlimit="10"/>
<path opacity="0.1" d="M147.685 94.8707L139.647 92.8613" stroke="#0E0E0E" stroke-width="0.725414" stroke-miterlimit="10"/>
<path opacity="0.1" d="M148.599 91.0541L140.467 89.4727" stroke="#0E0E0E" stroke-width="0.725414" stroke-miterlimit="10"/>
<path opacity="0.1" d="M149.308 87.1944L141.104 86.041" stroke="#0E0E0E" stroke-width="0.725414" stroke-miterlimit="10"/>
<path opacity="0.1" d="M149.817 83.3041L141.562 82.5859" stroke="#0E0E0E" stroke-width="0.725414" stroke-miterlimit="10"/>
<path opacity="0.1" d="M150.121 79.3976L141.837 79.1074" stroke="#0E0E0E" stroke-width="0.725414" stroke-miterlimit="10"/>
<path opacity="0.5" d="M150.216 75.4805L141.939 75.6255" stroke="#0E0E0E" stroke-width="0.725414" stroke-miterlimit="10"/>
<path opacity="0.1" d="M150.114 71.5547L141.851 72.135" stroke="#0E0E0E" stroke-width="0.725414" stroke-miterlimit="10"/>
<path opacity="0.1" d="M149.803 67.6445L141.577 68.6529" stroke="#0E0E0E" stroke-width="0.725414" stroke-miterlimit="10"/>
<path opacity="0.1" d="M149.286 63.7578L141.125 65.2014" stroke="#0E0E0E" stroke-width="0.725414" stroke-miterlimit="10"/>
<path opacity="0.1" d="M148.57 59.9062L140.496 61.7706" stroke="#0E0E0E" stroke-width="0.725414" stroke-miterlimit="10"/>
<path opacity="0.1" d="M147.648 56.0898L139.683 58.3749" stroke="#0E0E0E" stroke-width="0.725414" stroke-miterlimit="10"/>
<path opacity="0.1" d="M146.531 52.332L138.696 55.0306" stroke="#0E0E0E" stroke-width="0.725414" stroke-miterlimit="10"/>
<path opacity="0.1" d="M145.217 48.6367L137.535 51.7342" stroke="#0E0E0E" stroke-width="0.725414" stroke-miterlimit="10"/>
<path opacity="0.2" d="M143.716 45.0137L136.208 48.5174" stroke="#0E0E0E" stroke-width="0.725414" stroke-miterlimit="10"/>
<path opacity="0.1" d="M142.018 41.4727L134.706 45.3681" stroke="#0E0E0E" stroke-width="0.725414" stroke-miterlimit="10"/>
<path opacity="0.1" d="M140.147 38.0332L133.045 42.2986" stroke="#0E0E0E" stroke-width="0.725414" stroke-miterlimit="10"/>
<path opacity="0.1" d="M138.094 34.6875L131.224 39.3156" stroke="#0E0E0E" stroke-width="0.725414" stroke-miterlimit="10"/>
<path opacity="0.1" d="M135.867 31.4629L129.251 36.4465" stroke="#0E0E0E" stroke-width="0.725414" stroke-miterlimit="10"/>
<path opacity="0.1" d="M133.48 28.3496L127.133 33.6741" stroke="#0E0E0E" stroke-width="0.725414" stroke-miterlimit="10"/>
<path opacity="0.1" d="M130.926 25.3672L124.869 31.0182" stroke="#0E0E0E" stroke-width="0.725414" stroke-miterlimit="10"/>
<path opacity="0.1" d="M128.229 22.5234L122.469 28.4863" stroke="#0E0E0E" stroke-width="0.725414" stroke-miterlimit="10"/>
<path opacity="0.1" d="M125.378 19.832L119.944 26.0851" stroke="#0E0E0E" stroke-width="0.725414" stroke-miterlimit="10"/>
<path opacity="0.1" d="M122.397 17.2852L117.297 23.8139" stroke="#0E0E0E" stroke-width="0.725414" stroke-miterlimit="10"/>
<path opacity="0.1" d="M119.277 14.9004L114.525 21.6903" stroke="#0E0E0E" stroke-width="0.725414" stroke-miterlimit="10"/>
<path opacity="0.2" d="M116.049 12.6816L111.653 19.7109" stroke="#0E0E0E" stroke-width="0.725414" stroke-miterlimit="10"/>
<path opacity="0.1" d="M112.697 10.6348L108.685 17.8816" stroke="#0E0E0E" stroke-width="0.725414" stroke-miterlimit="10"/>
<path opacity="0.1" d="M109.252 8.77148L105.617 16.2142" stroke="#0E0E0E" stroke-width="0.725414" stroke-miterlimit="10"/>
<path opacity="0.1" d="M105.711 7.08789L102.476 14.712" stroke="#0E0E0E" stroke-width="0.725414" stroke-miterlimit="10"/>
<path opacity="0.1" d="M102.084 5.58594L99.2554 13.3696" stroke="#0E0E0E" stroke-width="0.725414" stroke-miterlimit="10"/>
<path opacity="0.1" d="M98.3853 4.2793L95.9624 12.2008" stroke="#0E0E0E" stroke-width="0.725414" stroke-miterlimit="10"/>
<path opacity="0.1" d="M94.6276 3.16992L92.6182 11.2075" stroke="#0E0E0E" stroke-width="0.725414" stroke-miterlimit="10"/>
<path opacity="0.1" d="M90.8119 2.25586L89.2305 10.3877" stroke="#0E0E0E" stroke-width="0.725414" stroke-miterlimit="10"/>
<path opacity="0.1" d="M86.9527 1.54492L85.7993 9.74935" stroke="#0E0E0E" stroke-width="0.725414" stroke-miterlimit="10"/>
<path opacity="0.1" d="M83.0639 1.03711L82.3457 9.29232" stroke="#0E0E0E" stroke-width="0.725414" stroke-miterlimit="10"/>
<path opacity="0.1" d="M79.1544 0.738281L78.8643 9.01525" stroke="#0E0E0E" stroke-width="0.725414" stroke-miterlimit="10"/>
</g>
<path d="M75.6866 74.3184V56.6499H75.5981L70.0924 60.4286V56.9304L75.6571 53.0188H79.421V74.3184H75.6866Z" fill="#0E0E0E"/>
<path d="M69.8754 27.8301V14.8651H71.9599L78.2761 23.9487H78.33V14.8651H80.6301V27.8301H78.5637L72.2294 18.7106H72.1845V27.8301H69.8754Z" fill="#0E0E0E"/>
<path d="M75.7446 137.146C72.7707 137.146 70.812 135.745 70.6593 133.418L70.6503 133.283H72.8695L72.8875 133.391C73.0582 134.505 74.1993 135.197 75.8255 135.197C77.4607 135.197 78.485 134.469 78.485 133.355V133.346C78.485 132.376 77.8111 131.854 76.14 131.504L74.7473 131.217C72.1957 130.686 70.9378 129.501 70.9378 127.569V127.56C70.9468 125.278 72.9504 123.732 75.7446 123.732C78.5748 123.732 80.4257 125.224 80.5605 127.443L80.5694 127.596H78.3502L78.3322 127.488C78.1795 126.356 77.1822 125.682 75.7267 125.682C74.2083 125.691 73.2649 126.401 73.2649 127.434V127.443C73.2649 128.359 73.9747 128.899 75.538 129.222L76.9396 129.509C79.635 130.067 80.812 131.163 80.812 133.184V133.193C80.812 135.61 78.9073 137.146 75.7446 137.146Z" fill="#0E0E0E"/>
<path d="M60.6215 94.5488V84.5373H62.2965V86.0005H62.335C62.7874 85.009 63.7886 84.3448 65.0785 84.3448C66.4455 84.3448 67.4563 85.0475 67.8895 86.2701H67.928C68.4863 85.0667 69.6607 84.3448 71.0662 84.3448C73.0493 84.3448 74.3296 85.6443 74.3296 87.637V94.5488H72.6546V88.0221C72.6546 86.6455 71.8941 85.8272 70.5753 85.8272C69.2468 85.8272 68.313 86.8188 68.313 88.1857V94.5488H66.638V87.8392C66.638 86.6262 65.8294 85.8272 64.5876 85.8272C63.2591 85.8272 62.2965 86.8765 62.2965 88.2724V94.5488H60.6215ZM80.8948 80.6578L76.9769 97.9181H75.3789L79.2968 80.6578H80.8948ZM85.5252 94.7414C83.1667 94.7414 81.742 93.538 81.5398 91.7475L81.5302 91.6609H83.2052L83.2245 91.7571C83.4266 92.7583 84.1678 93.3455 85.5348 93.3455C86.8921 93.3455 87.7008 92.7776 87.7008 91.8727V91.863C87.7008 91.1411 87.3253 90.7367 86.1894 90.4576L84.601 90.0725C82.7142 89.6201 81.7997 88.7441 81.7997 87.3001V87.2905C81.7997 85.5673 83.3111 84.3448 85.477 84.3448C87.6719 84.3448 89.0677 85.6251 89.1929 87.3001L89.2025 87.4252H87.6045L87.5949 87.3578C87.4601 86.3856 86.7189 85.7406 85.477 85.7406C84.2641 85.7406 83.5132 86.3278 83.5132 87.2135V87.2231C83.5132 87.9066 83.9657 88.3783 85.0727 88.6478L86.6611 89.0329C88.6827 89.5238 89.4143 90.3228 89.4143 91.7475V91.7571C89.4143 93.5092 87.7585 94.7414 85.5252 94.7414Z" fill="#0E0E0E"/>
<path d="M16.0807 83.0332L12.6036 70.0683H15.0115L17.2667 79.8526H17.3116L19.9082 70.0683H22.0106L24.6072 79.8526H24.6521L26.9073 70.0683H29.3152L25.8381 83.0332H23.6009L20.9864 73.734H20.9325L18.3179 83.0332H16.0807Z" fill="#0E0E0E"/>
<path d="M129.02 83.0332V70.0683H137.412V72.0179H131.338V75.513H137.079V77.3908H131.338V81.0835H137.412V83.0332H129.02Z" fill="#0E0E0E"/>
<path fill-rule="evenodd" clip-rule="evenodd" d="M3.4163 95.2687C3.15487 95.4837 3.26817 95.9066 3.60211 95.9621L17.7334 98.3127C17.9715 98.3523 18.1326 98.077 17.9815 97.8888L14.5887 93.6614L38.9218 87.1414L38.2414 84.6023L14.1924 91.0462L14.9059 86.4104C14.9426 86.1719 14.6654 86.0141 14.4791 86.1674L3.4163 95.2687Z" fill="#0E0E0E"/>
<path fill-rule="evenodd" clip-rule="evenodd" d="M112.74 65.1208L113.42 67.6599L138.922 60.8268C139.891 63.2765 142.564 64.6638 145.17 63.9656C147.974 63.2141 149.639 60.3313 148.887 57.5267C148.136 54.7221 145.253 53.0577 142.448 53.8092C140.335 54.3754 138.869 56.1516 138.596 58.1926L112.74 65.1208ZM144.489 61.4265C143.087 61.8022 141.646 60.97 141.27 59.5677C140.894 58.1654 141.726 56.724 143.129 56.3483C144.531 55.9725 145.972 56.8047 146.348 58.207C146.724 59.6093 145.892 61.0507 144.489 61.4265Z" fill="#0E0E0E"/>
<path d="M75.4117 1.47936C75.6708 1.08042 76.2548 1.08042 76.514 1.47936L80.4256 7.50174C80.7096 7.93894 80.3958 8.51687 79.8745 8.51687H72.0512C71.5299 8.51687 71.2161 7.93893 71.5001 7.50174L75.4117 1.47936Z" fill="#7D94D9"/>
<defs>
<clipPath id="clip0_671_6769">
<rect width="149.834" height="149.834" fill="white" transform="translate(0.388672 0.630859)"/>
</clipPath>
</defs>
</svg>
