<svg width="26" height="26" viewBox="0 0 26 26" fill="none" xmlns="http://www.w3.org/2000/svg">
<path d="M6.03613 16.4541C3.00684 16.4541 0.922852 14.5312 0.922852 11.7598C0.922852 9.5791 2.30859 7.80664 4.40332 7.19434C4.7793 3.15527 8.15234 0.0615234 12.1699 0.0615234C15.2314 0.0615234 17.7559 1.62988 19.1416 4.41211C22.8262 4.37988 25.6191 6.96875 25.6191 10.417C25.6191 13.8115 22.9229 16.4541 19.4316 16.4541H6.03613ZM14.9092 21.7715C14.7158 22.1152 14.2969 22.2441 13.9531 22.04C13.5879 21.8359 13.502 21.4277 13.6953 21.0947L15.0918 18.6777C15.2959 18.3125 15.6934 18.1943 16.0479 18.3984C16.4023 18.6025 16.5098 19.0215 16.2949 19.376L14.9092 21.7715ZM6.36914 21.7822C6.16504 22.126 5.74609 22.2441 5.40234 22.0508C5.04785 21.8467 4.95117 21.4385 5.14453 21.0947L6.54102 18.6885C6.75586 18.3232 7.15332 18.2051 7.50781 18.4092C7.85156 18.6133 7.95898 19.0322 7.75488 19.376L6.36914 21.7822ZM18.2822 24.79C18.0889 25.1338 17.6699 25.2627 17.3154 25.0586C16.9609 24.8545 16.8643 24.4463 17.0684 24.1133L18.4541 21.6963C18.6689 21.3311 19.0664 21.2129 19.4209 21.417C19.7646 21.6211 19.8721 22.04 19.668 22.3945L18.2822 24.79ZM9.73145 24.8008C9.53809 25.1445 9.11914 25.2734 8.77539 25.0693C8.41016 24.8652 8.32422 24.457 8.51758 24.124L9.91406 21.707C10.1289 21.3418 10.5156 21.2236 10.8701 21.4277C11.2246 21.6318 11.332 22.0508 11.1172 22.4053L9.73145 24.8008Z" fill="#AEAEAE"/>
</svg>
