<svg width="30" height="20" viewBox="0 0 30 20" fill="none" xmlns="http://www.w3.org/2000/svg">
<path d="M24.2764 13.5752C24.126 10.2021 21.3867 7.50586 17.8525 7.25879C17.5625 6.66797 17.2295 6.22754 16.8643 5.87305C17.4551 2.96191 20.0654 0.770508 22.0205 0.695312C22.4502 0.68457 22.6865 0.910156 22.6865 1.25391C22.6865 1.84473 21.9561 2.89746 21.9561 4.3584C21.9561 6.73242 23.5889 8.31152 26.1885 8.30078C27.6924 8.30078 28.498 7.62402 29.0459 7.62402C29.4004 7.62402 29.583 7.93555 29.583 8.37598C29.583 10.1699 27.5957 12.8984 24.2764 13.5752ZM5.44531 19.333C2.75977 19.333 0.922852 17.6465 0.922852 15.1865C0.922852 13.2422 2.11523 11.6631 3.98438 11.126C4.30664 7.52734 7.31445 4.77734 10.8916 4.77734C13.6953 4.77734 15.8975 6.29199 17.1113 8.60156C20.3877 8.6123 22.8262 10.9111 22.8262 13.9619C22.8262 17.002 20.4629 19.333 17.4014 19.333H5.44531Z" fill="#AEAEAE"/>
</svg>
