<svg width="26" height="26" viewBox="0 0 26 26" fill="none" xmlns="http://www.w3.org/2000/svg">
<path d="M6.03613 16.4541C3.00684 16.4541 0.922852 14.5312 0.922852 11.7598C0.922852 9.5791 2.30859 7.80664 4.40332 7.19434C4.7793 3.15527 8.15234 0.0615234 12.1699 0.0615234C15.2314 0.0615234 17.7559 1.62988 19.1416 4.41211C22.8262 4.37988 25.6191 6.96875 25.6191 10.417C25.6191 13.8115 22.9229 16.4541 19.4316 16.4541H6.03613ZM8.52832 24.8223C8.33496 25.166 7.91602 25.2949 7.56152 25.1016C7.20703 24.8975 7.12109 24.4785 7.31445 24.1455L10.4619 18.6885C10.6768 18.3232 11.0635 18.2051 11.4287 18.4092C11.7725 18.6133 11.8799 19.0215 11.6758 19.3867L8.52832 24.8223ZM4.24219 24.833C4.04883 25.1768 3.62988 25.2949 3.27539 25.1016C2.9209 24.8975 2.83496 24.4893 3.02832 24.1455L6.17578 18.6885C6.39062 18.3232 6.78809 18.2158 7.14258 18.4199C7.48633 18.624 7.59375 19.0215 7.38965 19.3867L4.24219 24.833ZM12.8037 24.833C12.5996 25.1768 12.1807 25.2949 11.8369 25.1016C11.4717 24.8975 11.3965 24.4893 11.5791 24.1455L14.7373 18.6885C14.9414 18.3232 15.3389 18.2158 15.6934 18.4199C16.0479 18.624 16.1445 19.0215 15.9404 19.3867L12.8037 24.833ZM17.0576 24.833C16.875 25.166 16.4453 25.2949 16.1123 25.1016C15.7578 24.8975 15.6719 24.4785 15.876 24.1348L19.0234 18.6777C19.2168 18.3232 19.625 18.2266 19.9688 18.4092C20.3232 18.6025 20.4199 19.0215 20.2158 19.3652L17.0576 24.833Z" fill="#AEAEAE"/>
</svg>
