<svg width="26" height="21" viewBox="0 0 26 21" fill="none" xmlns="http://www.w3.org/2000/svg">
<path opacity="0.3" d="M12.7476 8.45075C12.2759 8.45075 11.8812 8.03681 11.8812 7.52661V4.12846L12.0256 2.60748L11.4191 3.37759L10.235 4.59053C10.081 4.76381 9.86924 4.87932 9.6382 4.87932C9.19539 4.87932 8.88734 4.57128 8.88734 4.14771C8.88734 3.90705 8.99323 3.72415 9.18576 3.54124L12.1411 0.768819C12.3625 0.566663 12.5261 0.489651 12.7476 0.489651C12.9593 0.489651 13.123 0.566663 13.3444 0.768819L16.2997 3.54124C16.4923 3.72415 16.5981 3.90705 16.5981 4.14771C16.5981 4.57128 16.2901 4.87932 15.8473 4.87932C15.6162 4.87932 15.4045 4.76381 15.2504 4.59053L14.1434 3.45461L13.4599 2.60748L13.6043 4.12846V7.52661C13.6043 8.03681 13.2096 8.45075 12.7476 8.45075ZM17.7148 11.0114C17.3779 10.6841 17.3875 10.1161 17.7629 9.75032L19.3417 8.17158C19.7171 7.79615 20.2755 7.79615 20.5931 8.13307C20.9301 8.47 20.9397 9.01871 20.5546 9.39414L18.9855 10.9633C18.6101 11.3387 18.0517 11.3387 17.7148 11.0114ZM6.5096 10.9633L4.93086 9.39414C4.55542 9.01871 4.55542 8.46037 4.89235 8.13307C5.22928 7.80577 5.77799 7.79615 6.15342 8.17158L7.73216 9.75032C8.09797 10.1161 8.10759 10.6745 7.77067 11.0114C7.44337 11.3483 6.88503 11.3387 6.5096 10.9633ZM17.9651 15.969C17.9651 16.5851 17.84 17.1723 17.6186 17.7114H7.87656C7.64552 17.1723 7.52038 16.5851 7.52038 15.969C7.52038 13.1003 9.88849 10.7322 12.7476 10.7322C15.6066 10.7322 17.9651 13.1003 17.9651 15.969ZM2.56274 16.46C2.04291 16.46 1.6386 16.0749 1.6386 15.6032C1.6386 15.1315 2.03329 14.7465 2.56274 14.7465H4.78646C5.31592 14.7465 5.7106 15.1315 5.72023 15.6032C5.72985 16.0749 5.31592 16.46 4.78646 16.46H2.56274ZM20.7087 16.46C20.1792 16.46 19.7845 16.0749 19.7749 15.6032C19.7653 15.1315 20.1792 14.7465 20.7087 14.7465H22.9324C23.4618 14.7465 23.8565 15.1315 23.8565 15.6032C23.8565 16.0749 23.4618 16.46 22.9324 16.46H20.7087ZM1.36906 20.7919C0.84923 20.7919 0.406412 20.3587 0.406412 19.8677C0.406412 19.3672 0.839603 18.9436 1.36906 18.9436H24.1164C24.6459 18.9436 25.0791 19.3575 25.0791 19.8677C25.0791 20.3683 24.6459 20.7919 24.1164 20.7919H1.36906Z" fill="#0E0E0E"/>
</svg>
