<svg width="23" height="22" viewBox="0 0 23 22" fill="none" xmlns="http://www.w3.org/2000/svg">
<path opacity="0.3" d="M12.4775 1.00216V2.95634C12.4775 3.48579 12.025 3.92861 11.4956 3.92861C10.9661 3.92861 10.5233 3.48579 10.5233 2.95634V1.00216C10.5233 0.472705 10.9661 0.0202607 11.4956 0.0202607C12.025 0.0202607 12.4775 0.472705 12.4775 1.00216ZM16.3281 4.58321L17.7239 3.18737C18.0993 2.81194 18.7251 2.81194 19.1005 3.17775C19.4759 3.55318 19.4759 4.19815 19.1005 4.56396L17.7143 5.95017C17.3389 6.33523 16.7035 6.33523 16.3377 5.9598C15.9526 5.58436 15.9526 4.95864 16.3281 4.58321ZM5.27688 5.95017L3.89067 4.55433C3.52486 4.19815 3.52486 3.55318 3.90029 3.17775C4.27573 2.81194 4.91107 2.82157 5.27688 3.18737L6.66309 4.58321C7.0289 4.94902 7.0289 5.59399 6.65347 5.9598C6.27803 6.33523 5.64269 6.33523 5.27688 5.95017ZM11.4956 5.70951C14.268 5.70951 16.5591 8.00061 16.5591 10.7827C16.5591 13.5647 14.268 15.8558 11.4956 15.8558C8.72316 15.8558 6.42243 13.5647 6.42243 10.7827C6.42243 8.00061 8.72316 5.70951 11.4956 5.70951ZM21.2665 11.7646H19.3123C18.7828 11.7646 18.34 11.3121 18.34 10.7827C18.34 10.2532 18.7828 9.81039 19.3123 9.81039H21.2665C21.7959 9.81039 22.2387 10.2532 22.2387 10.7827C22.2387 11.3121 21.7959 11.7646 21.2665 11.7646ZM1.73434 9.81039H3.67889C4.20834 9.81039 4.66079 10.2532 4.66079 10.7827C4.66079 11.3121 4.20834 11.7646 3.67889 11.7646H1.73434C1.19525 11.7646 0.752436 11.3121 0.752436 10.7827C0.752436 10.2532 1.19525 9.81039 1.73434 9.81039ZM17.7047 15.6152L19.1005 17.0014C19.4759 17.3768 19.4759 18.0025 19.1101 18.378C18.7347 18.7534 18.0993 18.763 17.7335 18.3876L16.3377 17.0014C15.9526 16.6163 15.9526 15.9906 16.3281 15.6248C16.7035 15.2493 17.3292 15.2397 17.7047 15.6152ZM3.89067 16.9917L5.27688 15.6152C5.65231 15.2493 6.28766 15.2493 6.66309 15.6248C7.0289 15.9906 7.0289 16.6259 6.65347 17.0014L5.25763 18.3876C4.89182 18.7534 4.24685 18.7438 3.87141 18.3683C3.50561 18.0025 3.51524 17.3672 3.89067 16.9917ZM12.4775 18.609V20.5632C12.4775 21.0926 12.025 21.5451 11.4956 21.5451C10.9661 21.5451 10.5233 21.0926 10.5233 20.5632V18.609C10.5233 18.0795 10.9661 17.6367 11.4956 17.6367C12.025 17.6367 12.4775 18.0795 12.4775 18.609Z" fill="#0E0E0E"/>
</svg>
