<svg width="9" height="14" viewBox="0 0 9 14" fill="none" xmlns="http://www.w3.org/2000/svg">
<path d="M3.93981 13.1286C2.19271 13.1286 0.789303 11.7309 0.789303 9.99525C0.789303 9.10738 1.14445 8.32262 1.83183 7.69824C1.95213 7.58941 1.98077 7.52067 1.98077 7.36028L1.96931 2.34238C1.96931 1.05926 2.76553 0.205763 3.93981 0.205763C5.10263 0.205763 5.8874 1.05926 5.8874 2.34238L5.88167 7.36028C5.88167 7.52067 5.91031 7.58941 6.0306 7.69824C6.71226 8.32834 7.07313 9.10738 7.07313 9.99525C7.07313 11.7309 5.66973 13.1286 3.93981 13.1286ZM3.93981 12.1319C5.11409 12.1319 6.0707 11.1695 6.0707 9.98379C6.0707 9.25631 5.72701 8.62621 5.12555 8.21951C4.94797 8.10494 4.87923 7.99611 4.87923 7.76698V2.38248C4.87923 1.66645 4.49545 1.2082 3.93981 1.2082C3.36699 1.2082 2.9832 1.66645 2.9832 2.38248V7.76698C2.9832 7.99611 2.91446 8.10494 2.73689 8.21951C2.13543 8.62621 1.79174 9.25631 1.79174 9.98379C1.79174 11.1695 2.74835 12.1319 3.93981 12.1319ZM6.98148 2.44549C6.76381 2.44549 6.62061 2.2851 6.62061 2.09607C6.62061 1.90704 6.76381 1.74665 6.98148 1.74665H8.23596C8.45363 1.74665 8.5911 1.90704 8.5911 2.09607C8.5911 2.2851 8.45363 2.44549 8.23596 2.44549H6.98148ZM6.98148 4.0322C6.76381 4.0322 6.62061 3.87181 6.62061 3.68278C6.62061 3.49375 6.76381 3.33336 6.98148 3.33336H8.23596C8.45363 3.33336 8.5911 3.49375 8.5911 3.68278C8.5911 3.87181 8.45363 4.0322 8.23596 4.0322H6.98148ZM6.98148 5.63036C6.76381 5.63036 6.62061 5.46997 6.62061 5.28094C6.62061 5.09191 6.76381 4.93152 6.98148 4.93152H8.23596C8.45363 4.93152 8.5911 5.09191 8.5911 5.28094C8.5911 5.46997 8.45363 5.63036 8.23596 5.63036H6.98148ZM3.92835 11.3586C3.17223 11.3586 2.55932 10.7456 2.55932 9.97806C2.55932 9.45107 2.85718 9.01 3.29825 8.77514C3.48155 8.67776 3.53884 8.60903 3.53884 8.33407V5.40696C3.53884 5.11483 3.71068 4.93152 3.92835 4.93152C4.15175 4.93152 4.3236 5.11483 4.3236 5.40696V8.33407C4.3236 8.60903 4.38088 8.67776 4.56418 8.77514C5.00525 9.01 5.30312 9.45107 5.30312 9.97806C5.30312 10.7456 4.6902 11.3586 3.92835 11.3586ZM6.98148 7.2228C6.76381 7.2228 6.62061 7.06241 6.62061 6.87338C6.62061 6.68435 6.76381 6.52396 6.98148 6.52396H8.23596C8.45363 6.52396 8.5911 6.68435 8.5911 6.87338C8.5911 7.06241 8.45363 7.2228 8.23596 7.2228H6.98148Z" fill="black"/>
</svg>
