<svg width="21" height="19" viewBox="0 0 21 19" fill="none" xmlns="http://www.w3.org/2000/svg">
<path opacity="0.3" d="M1.32993 6.86895C0.848605 7.00372 0.482799 6.79193 0.367281 6.40688C0.26139 6.02182 0.444293 5.62713 0.896737 5.50199C2.35034 5.05917 3.94833 4.78 5.51745 4.78C7.34648 4.78 8.67493 5.05917 10.2537 5.05917C11.1489 5.05917 11.7265 4.52971 11.7265 3.70184C11.7265 2.87396 11.1393 2.35413 10.3788 2.35413C9.82048 2.35413 9.32953 2.71031 9.12738 3.16275C8.89634 3.59594 8.46315 3.71146 8.11659 3.51893C7.74116 3.3264 7.66415 2.91246 7.84705 2.54666C8.28025 1.60326 9.27177 0.919783 10.3788 0.919783C11.9287 0.919783 13.1512 2.08459 13.1512 3.70184C13.1512 5.28058 12.0153 6.49351 10.2537 6.49351C8.57867 6.49351 7.27909 6.21435 5.51745 6.21435C4.15049 6.21435 2.71614 6.43575 1.32993 6.86895ZM16.4339 11.4897C13.1512 11.4897 10.2633 9.82427 6.44159 9.82427C4.56442 9.82427 2.9183 10.0842 1.32993 10.6618C0.867858 10.8254 0.482799 10.604 0.367281 10.219C0.26139 9.8339 0.453919 9.44884 0.887111 9.30444C2.6295 8.7076 4.44891 8.38993 6.44159 8.38993C10.3018 8.38993 13.4978 10.0649 16.4339 10.0649C17.9356 10.0649 18.9079 9.21781 18.9079 7.98562C18.9079 6.77268 18.003 5.93518 16.8671 5.93518C15.9237 5.93518 15.115 6.57053 14.9418 7.50429C14.8262 7.99524 14.4508 8.22628 14.0561 8.13964C13.6711 8.06263 13.44 7.67757 13.5363 7.24438C13.8251 5.67526 15.1535 4.51046 16.8671 4.51046C18.802 4.51046 20.3422 5.98331 20.3422 7.98562C20.3422 10.0264 18.7153 11.4897 16.4339 11.4897ZM10.2729 18.3822C8.82895 18.3822 7.8278 17.3714 7.57751 16.0719C7.48125 15.6387 7.66415 15.2151 8.11659 15.1477C8.55941 15.0707 8.88671 15.3499 8.9926 15.7446C9.137 16.4858 9.57019 16.9479 10.2729 16.9479C10.9853 16.9479 11.5532 16.4473 11.5532 15.6194C11.5532 14.2813 9.69534 13.4246 6.26831 13.4246C4.5548 13.4246 2.86054 13.723 1.32993 14.2621C0.867858 14.4257 0.482799 14.2043 0.367281 13.8096C0.26139 13.4342 0.453919 13.0491 0.896737 12.8951C2.54286 12.3368 4.48741 11.9999 6.26831 11.9999C10.6099 11.9999 12.9876 13.2898 12.9876 15.6194C12.9876 17.2367 11.7939 18.3822 10.2729 18.3822Z" fill="#0E0E0E"/>
</svg>
