<svg width="127" height="38" viewBox="0 0 127 38" fill="none" xmlns="http://www.w3.org/2000/svg">
<g id="wordmark">
<g id="EWiT">
<path id="Vector" d="M19.1101 24.61H23.5701V36.99H26.6101V24.61H31.0601V22H19.1101V24.61Z" fill="#1F2933"/>
<g id="Group">
<path id="Vector_2" d="M34.4401 24.4996C34.8901 24.4996 35.2701 24.3496 35.5901 24.0396C35.9101 23.7296 36.0701 23.3596 36.0701 22.9196C36.0701 22.4796 35.9101 22.1196 35.5901 21.8096C35.2701 21.4996 34.8801 21.3496 34.4401 21.3496C34.0001 21.3496 33.6101 21.4996 33.2901 21.8096C32.9701 22.1196 32.8101 22.4896 32.8101 22.9196C32.8101 23.3496 32.9701 23.7296 33.2901 24.0396C33.6101 24.3496 33.9901 24.4996 34.4401 24.4996Z" fill="#1F2933"/>
<path id="Vector_3" d="M35.9502 25.75H32.9202V36.99H35.9502V25.75Z" fill="#1F2933"/>
</g>
<path id="Vector_4" d="M50.6102 25.5998C49.8102 25.5998 49.1202 25.7898 48.5302 26.1798C47.9402 26.5698 47.5402 27.0798 47.3202 27.7298H47.2102C47.0402 27.0798 46.6802 26.5598 46.1602 26.1698C45.6402 25.7798 45.0002 25.5998 44.2502 25.5998C43.5002 25.5998 42.8802 25.7898 42.3502 26.1698C41.8202 26.5498 41.4402 27.0698 41.2102 27.7298H41.0802V25.7498H38.2002V36.9898H41.2302V30.2398C41.2302 29.8198 41.3102 29.4598 41.4602 29.1498C41.6102 28.8398 41.8302 28.5998 42.0902 28.4298C42.3502 28.2598 42.6602 28.1698 43.0002 28.1698C43.5002 28.1698 43.9002 28.3298 44.2002 28.6598C44.5102 28.9898 44.6602 29.4298 44.6602 29.9798V36.9898H47.5902V30.1298C47.5902 29.5398 47.7402 29.0698 48.0502 28.7098C48.3602 28.3498 48.7902 28.1698 49.3402 28.1698C49.8202 28.1698 50.2302 28.3298 50.5502 28.6398C50.8702 28.9498 51.0302 29.4198 51.0302 30.0398V36.9798H54.0502V29.4198C54.0502 28.1998 53.7302 27.2598 53.0902 26.5898C52.4502 25.9198 51.6302 25.5898 50.6102 25.5898V25.5998Z" fill="#1F2933"/>
<path id="Vector_5" d="M64.7401 27.0196C64.2701 26.5496 63.7301 26.1896 63.1101 25.9596C62.4901 25.7196 61.8201 25.5996 61.1001 25.5996C60.0301 25.5996 59.1001 25.8396 58.3101 26.3296C57.5201 26.8196 56.9001 27.4996 56.4701 28.3696C56.0301 29.2396 55.8201 30.2596 55.8201 31.4096C55.8201 32.5596 56.0401 33.6196 56.4701 34.4896C56.9101 35.3596 57.5301 36.0196 58.3301 36.4896C59.1401 36.9596 60.1001 37.1996 61.2201 37.1996C62.1201 37.1996 62.9101 37.0596 63.6001 36.7696C64.2901 36.4796 64.8501 36.0796 65.2901 35.5696C65.7301 35.0596 66.0201 34.4496 66.1601 33.7596L63.3601 33.5696C63.2601 33.8496 63.1001 34.0896 62.9001 34.2896C62.7001 34.4896 62.4601 34.6296 62.1801 34.7296C61.9001 34.8296 61.5901 34.8796 61.2601 34.8796C60.7501 34.8796 60.3201 34.7696 59.9501 34.5496C59.5801 34.3296 59.2901 34.0196 59.0901 33.6096C58.8901 33.2096 58.7901 32.7196 58.7901 32.1696H66.2201V31.3096C66.2201 30.3496 66.0901 29.5196 65.8301 28.7996C65.5701 28.0896 65.2101 27.4896 64.7401 27.0196ZM58.8001 30.2296C58.8201 29.8296 58.9101 29.4596 59.0901 29.1196C59.2901 28.7596 59.5601 28.4696 59.9201 28.2496C60.2701 28.0296 60.6801 27.9196 61.1401 27.9196C61.6001 27.9196 61.9701 28.0196 62.3001 28.2196C62.6301 28.4196 62.8901 28.6896 63.0801 29.0396C63.2701 29.3896 63.3601 29.7796 63.3601 30.2296H58.7901H58.8001Z" fill="#1F2933"/>
<g id="Group_2">
<path id="Vector_6" d="M71.3603 33.6797C70.8903 33.6797 70.4803 33.8497 70.1503 34.1897C69.8203 34.5297 69.6503 34.9397 69.6603 35.4197C69.6603 35.8997 69.8203 36.3197 70.1503 36.6597C70.4803 36.9997 70.8903 37.1797 71.3603 37.1797C71.6603 37.1797 71.9403 37.0997 72.2003 36.9397C72.4603 36.7797 72.6603 36.5697 72.8203 36.2997C72.9803 36.0297 73.0603 35.7397 73.0703 35.4197C73.0703 34.9397 72.8903 34.5297 72.5503 34.1897C72.2103 33.8497 71.8103 33.6797 71.3603 33.6797Z" fill="#1F2933"/>
<path id="Vector_7" d="M75.9202 23.66C75.5102 23.05 74.9402 22.59 74.2102 22.27C73.4902 21.95 72.6502 21.79 71.7102 21.79C70.8502 21.79 70.0702 21.95 69.3602 22.26C68.6502 22.57 68.0802 23.05 67.6502 23.69C67.2202 24.33 66.9902 25.13 66.9702 26.11H69.8702C69.8802 25.71 69.9802 25.38 70.1502 25.1C70.3302 24.83 70.5502 24.62 70.8202 24.49C71.0902 24.35 71.3902 24.28 71.6902 24.28C71.9902 24.28 72.3002 24.35 72.5602 24.48C72.8202 24.62 73.0302 24.81 73.1902 25.07C73.3502 25.33 73.4202 25.62 73.4202 25.96C73.4202 26.28 73.3502 26.56 73.2102 26.82C73.0702 27.08 72.8902 27.31 72.6602 27.52C72.4302 27.73 72.1602 27.93 71.8702 28.13C71.4802 28.38 71.1402 28.67 70.8602 28.98C70.5802 29.29 70.3702 29.7 70.2202 30.21C70.0802 30.72 70.0002 31.4 70.0002 32.25V32.5H72.6902V32.25C72.6902 31.77 72.7502 31.37 72.8702 31.04C72.9902 30.71 73.1602 30.43 73.4002 30.18C73.6402 29.93 73.9502 29.69 74.3202 29.46C74.7702 29.19 75.1502 28.88 75.4802 28.54C75.8102 28.2 76.0602 27.81 76.2402 27.37C76.4202 26.93 76.5102 26.42 76.5102 25.85C76.5102 25 76.3002 24.27 75.8902 23.66H75.9202Z" fill="#1F2933"/>
</g>
<path id="Vector_8" d="M3.62004 8.8H9.84004V6.19H3.62004V2.61H10.34V0H0.540039V15H10.37V12.39H3.62004V8.8Z" fill="#1F2933"/>
<path id="Vector_9" d="M22.5201 3.75H19.4201L17.3601 7.68L15.3601 3.75H12.2401L15.3601 9.38L12.1201 15H15.2501L17.3601 11.11L19.5201 15H22.6101L19.3601 9.38L22.5201 3.75Z" fill="#1F2933"/>
<path id="Vector_10" d="M31.7599 4.49961C31.3299 4.18961 30.8299 3.96961 30.2799 3.81961C29.7199 3.66961 29.1399 3.59961 28.5399 3.59961C27.6699 3.59961 26.8999 3.73961 26.2399 4.00961C25.5799 4.27961 25.0399 4.66961 24.6199 5.16961C24.1999 5.66961 23.9199 6.25961 23.7799 6.94961L26.5799 7.17961C26.6799 6.80961 26.8999 6.49961 27.2199 6.24961C27.5399 5.99961 27.9799 5.87961 28.5199 5.87961C29.0599 5.87961 29.4399 6.00961 29.7199 6.25961C29.9999 6.50961 30.1399 6.86961 30.1399 7.33961V7.37961C30.1399 7.61961 30.0499 7.79961 29.8799 7.91961C29.7099 8.03961 29.4199 8.12961 29.0399 8.18961C28.6499 8.24961 28.1399 8.31961 27.5099 8.37961C26.9699 8.42961 26.4599 8.52961 25.9699 8.65961C25.4799 8.78961 25.0399 8.98961 24.6599 9.24961C24.2799 9.50961 23.9699 9.84961 23.7499 10.2796C23.5299 10.6996 23.4199 11.2296 23.4199 11.8596C23.4199 12.5996 23.5799 13.2196 23.8899 13.7196C24.2099 14.2196 24.6399 14.5896 25.1799 14.8396C25.7199 15.0896 26.3499 15.2196 27.0399 15.2196C27.5799 15.2196 28.0599 15.1496 28.4699 14.9996C28.8799 14.8496 29.2299 14.6396 29.5299 14.3796C29.8199 14.1096 30.0599 13.7996 30.2299 13.4496H30.3199V15.0096H33.1899V7.41961C33.1899 6.74961 33.0599 6.17961 32.8099 5.68961C32.5599 5.20961 32.2199 4.80961 31.7799 4.50961L31.7599 4.49961ZM30.1599 10.9696C30.1599 11.3696 30.0599 11.7196 29.8699 12.0296C29.6799 12.3396 29.4099 12.5896 29.0699 12.7696C28.7299 12.9496 28.3399 13.0396 27.8899 13.0396C27.4399 13.0396 27.0399 12.9296 26.7399 12.7096C26.4399 12.4896 26.2899 12.1596 26.2899 11.7396C26.2899 11.4496 26.3599 11.1996 26.5099 10.9996C26.6599 10.7996 26.8599 10.6496 27.1299 10.5296C27.3899 10.4096 27.7099 10.3296 28.0599 10.2696C28.2299 10.2396 28.4099 10.2196 28.6099 10.1896C28.8099 10.1596 29.0199 10.1196 29.2199 10.0796C29.4199 10.0396 29.6099 9.98961 29.7699 9.93961C29.9299 9.88961 30.0599 9.82961 30.1599 9.76961V10.9596V10.9696Z" fill="#1F2933"/>
<path id="Vector_11" d="M39.0899 6.43012C39.4399 6.17012 39.8499 6.04012 40.3199 6.04012C40.8699 6.04012 41.3199 6.21012 41.6699 6.56012C42.0099 6.90012 42.2299 7.36012 42.3099 7.92012H45.1699C45.1299 7.05012 44.8999 6.29012 44.4799 5.65012C44.0599 5.01012 43.4999 4.50012 42.7799 4.15012C42.0599 3.80012 41.2299 3.62012 40.2799 3.62012C39.1799 3.62012 38.2299 3.87012 37.4199 4.36012C36.6199 4.85012 35.9999 5.53012 35.5699 6.40012C35.1399 7.27012 34.9199 8.28012 34.9199 9.44012C34.9199 10.6001 35.1299 11.5801 35.5599 12.4601C35.9899 13.3301 36.5999 14.0201 37.4099 14.5101C38.2099 15.0001 39.1699 15.2501 40.2899 15.2501C41.2599 15.2501 42.0999 15.0701 42.8099 14.7001C43.5199 14.3301 44.0799 13.8201 44.4799 13.1701C44.8899 12.5201 45.1099 11.7601 45.1599 10.9001H42.2999C42.2399 11.3001 42.1199 11.6301 41.9399 11.9201C41.7599 12.2001 41.5299 12.4101 41.2499 12.5601C40.9699 12.7101 40.6599 12.7801 40.3199 12.7801C39.8499 12.7801 39.4399 12.6501 39.0899 12.3901C38.7399 12.1301 38.4699 11.7401 38.2799 11.2401C38.0899 10.7401 37.9899 10.1301 37.9899 9.41012C37.9899 8.69012 38.0899 8.10012 38.2799 7.60012C38.4699 7.10012 38.7399 6.72012 39.0899 6.46012V6.43012Z" fill="#1F2933"/>
<path id="Vector_12" d="M52.3701 12.5996C52.2301 12.6296 52.0901 12.6396 51.9401 12.6396C51.7401 12.6396 51.5601 12.6096 51.4001 12.5496C51.2501 12.4896 51.1301 12.3696 51.0401 12.2196C50.9601 12.0596 50.9101 11.8396 50.9101 11.5496V6.09957H52.9601V3.75957H50.9101V1.05957H47.8801V3.75957H46.3901V6.09957H47.8801V11.9596C47.8801 12.6996 48.0201 13.3096 48.3301 13.7896C48.6301 14.2696 49.0601 14.6296 49.6101 14.8596C50.1601 15.0896 50.7901 15.1896 51.5201 15.1596C51.9101 15.1396 52.2501 15.0996 52.5201 15.0396C52.7901 14.9696 53.0101 14.9196 53.1601 14.8696L52.6801 12.5496C52.6001 12.5696 52.4901 12.5896 52.3501 12.6096L52.3701 12.5996Z" fill="#1F2933"/>
<path id="Vector_13" d="M58 0H54.97V15H58V0Z" fill="#1F2933"/>
<path id="Vector_14" d="M65.3 12.0102H65.19L62.93 3.75023H59.75L63.66 15.3202L63.48 15.8002C63.35 16.1502 63.18 16.4002 62.96 16.5502C62.75 16.7002 62.5 16.7602 62.21 16.7502C61.92 16.7402 61.6 16.6802 61.25 16.5702L60.57 18.9002C60.79 18.9902 61.06 19.0702 61.4 19.1302C61.73 19.1902 62.09 19.2202 62.48 19.2202C63.23 19.2202 63.87 19.1002 64.4 18.8502C64.93 18.6002 65.37 18.2502 65.72 17.8002C66.07 17.3502 66.34 16.8202 66.55 16.2102L70.79 3.74023H67.59L65.31 12.0002L65.3 12.0102Z" fill="#1F2933"/>
<path id="Vector_15" d="M89.0601 10.44H88.9301L86.2801 0H83.4001L80.7501 10.42H80.6301L78.2201 0H74.8601L79.0201 15H82.0201L84.7801 5.19H84.8901L87.6601 15H90.6601L94.8201 0H91.4601L89.0601 10.44Z" fill="#1F2933"/>
<path id="Vector_16" d="M104.89 4.11C104.32 3.77 103.66 3.6 102.9 3.6C102.07 3.6 101.38 3.79 100.83 4.17C100.28 4.55 99.8801 5.07 99.6401 5.73H99.5101V0H96.5701V15H99.6001V8.5C99.6001 8.02 99.7001 7.6 99.8701 7.26C100.05 6.92 100.29 6.65 100.61 6.47C100.92 6.29 101.29 6.2 101.7 6.2C102.32 6.2 102.79 6.39 103.14 6.78C103.48 7.17 103.65 7.71 103.65 8.4V15.01H106.68V7.85C106.68 6.97 106.53 6.22 106.22 5.58C105.9 4.95 105.46 4.46 104.9 4.12L104.89 4.11Z" fill="#1F2933"/>
<path id="Vector_17" d="M116.78 4.49961C116.35 4.18961 115.85 3.96961 115.3 3.81961C114.74 3.66961 114.16 3.59961 113.56 3.59961C112.69 3.59961 111.92 3.73961 111.26 4.00961C110.6 4.27961 110.06 4.66961 109.64 5.16961C109.22 5.66961 108.94 6.25961 108.8 6.94961L111.6 7.17961C111.7 6.80961 111.92 6.49961 112.24 6.24961C112.56 5.99961 113 5.87961 113.54 5.87961C114.08 5.87961 114.46 6.00961 114.74 6.25961C115.02 6.50961 115.16 6.86961 115.16 7.33961V7.37961C115.16 7.61961 115.07 7.79961 114.9 7.91961C114.73 8.03961 114.44 8.12961 114.06 8.18961C113.67 8.24961 113.16 8.31961 112.53 8.37961C111.99 8.42961 111.48 8.52961 110.99 8.65961C110.5 8.78961 110.06 8.98961 109.68 9.24961C109.3 9.50961 108.99 9.84961 108.77 10.2796C108.55 10.6996 108.44 11.2296 108.44 11.8596C108.44 12.5996 108.6 13.2196 108.91 13.7196C109.23 14.2196 109.66 14.5896 110.2 14.8396C110.74 15.0896 111.37 15.2196 112.06 15.2196C112.6 15.2196 113.08 15.1496 113.49 14.9996C113.9 14.8496 114.25 14.6396 114.55 14.3796C114.84 14.1096 115.08 13.7996 115.25 13.4496H115.34V15.0096H118.21V7.41961C118.21 6.74961 118.08 6.17961 117.83 5.68961C117.58 5.20961 117.24 4.80961 116.8 4.50961L116.78 4.49961ZM115.18 10.9696C115.18 11.3696 115.08 11.7196 114.89 12.0296C114.7 12.3396 114.43 12.5896 114.09 12.7696C113.75 12.9496 113.36 13.0396 112.91 13.0396C112.46 13.0396 112.06 12.9296 111.76 12.7096C111.46 12.4896 111.31 12.1596 111.31 11.7396C111.31 11.4496 111.38 11.1996 111.53 10.9996C111.68 10.7996 111.88 10.6496 112.15 10.5296C112.41 10.4096 112.73 10.3296 113.08 10.2696C113.25 10.2396 113.43 10.2196 113.63 10.1896C113.83 10.1596 114.04 10.1196 114.24 10.0796C114.44 10.0396 114.63 9.98961 114.79 9.93961C114.95 9.88961 115.08 9.82961 115.18 9.76961V10.9596V10.9696Z" fill="#1F2933"/>
<path id="Vector_18" d="M125.65 12.5996C125.51 12.6296 125.37 12.6396 125.22 12.6396C125.02 12.6396 124.84 12.6096 124.68 12.5496C124.53 12.4896 124.41 12.3696 124.32 12.2196C124.24 12.0596 124.19 11.8396 124.19 11.5496V6.09957H126.24V3.75957H124.19V1.05957H121.16V3.75957H119.67V6.09957H121.16V11.9596C121.16 12.6996 121.3 13.3096 121.61 13.7896C121.91 14.2696 122.34 14.6296 122.89 14.8596C123.44 15.0896 124.07 15.1896 124.8 15.1596C125.19 15.1396 125.53 15.0996 125.8 15.0396C126.07 14.9696 126.29 14.9196 126.44 14.8696L125.96 12.5496C125.88 12.5696 125.77 12.5896 125.63 12.6096L125.65 12.5996Z" fill="#1F2933"/>
<path id="Vector_19" d="M3.62004 22H0.540039V36.99H3.62004V22Z" fill="#1F2933"/>
<path id="Vector_20" d="M12.2701 30.4596L10.3001 30.0496C9.79014 29.9396 9.44014 29.7896 9.23014 29.5996C9.02014 29.4096 8.92014 29.1896 8.92014 28.9196C8.92014 28.5796 9.08014 28.3096 9.40014 28.1096C9.72014 27.9096 10.1201 27.8096 10.5901 27.8096C10.9401 27.8096 11.2401 27.8696 11.5001 27.9896C11.7501 28.1096 11.9601 28.2696 12.1101 28.4696C12.2601 28.6696 12.3701 28.8896 12.4201 29.1296L15.1901 28.9496C15.0601 27.9196 14.5901 27.0996 13.8001 26.4996C13.0101 25.8996 11.9201 25.5996 10.5401 25.5996C9.61014 25.5996 8.79014 25.7396 8.10014 26.0196C7.41014 26.2996 6.87014 26.7096 6.49014 27.2296C6.11014 27.7496 5.92014 28.3696 5.92014 29.0996C5.92014 29.9396 6.18014 30.6296 6.70014 31.1696C7.22014 31.7096 8.01014 32.0896 9.08014 32.3096L10.9701 32.6996C11.4401 32.7996 11.7901 32.9396 12.0201 33.1196C12.2501 33.2996 12.3601 33.5396 12.3701 33.8196C12.3701 34.1596 12.2001 34.4296 11.8801 34.6396C11.5601 34.8496 11.1301 34.9596 10.6001 34.9596C10.0701 34.9596 9.62014 34.8396 9.27014 34.6096C8.92014 34.3796 8.71014 34.0296 8.62014 33.5696L5.64014 33.7296C5.79014 34.7996 6.29014 35.6496 7.14014 36.2696C7.99014 36.8896 9.14014 37.1996 10.5901 37.1996C11.5401 37.1996 12.3701 37.0496 13.1001 36.7396C13.8301 36.4296 14.4001 35.9996 14.8201 35.4396C15.2401 34.8796 15.4501 34.2396 15.4501 33.4996C15.4501 32.6896 15.1901 32.0396 14.6701 31.5396C14.1501 31.0396 13.3601 30.6796 12.3001 30.4596H12.2701Z" fill="#1F2933"/>
</g>
<g id=".com">
<path id="Vector_21" d="M80.92 37.1797C80.45 37.1797 80.05 37.0097 79.72 36.6597C79.39 36.3197 79.22 35.8997 79.22 35.4197C79.22 34.9397 79.39 34.5297 79.72 34.1897C80.05 33.8497 80.45 33.6797 80.92 33.6797C81.39 33.6797 81.77 33.8497 82.11 34.1897C82.45 34.5297 82.62 34.9397 82.62 35.4197C82.62 35.7397 82.54 36.0397 82.38 36.2997C82.22 36.5597 82.01 36.7797 81.76 36.9397C81.5 37.0997 81.22 37.1797 80.91 37.1797H80.92Z" fill="#7CC4FA"/>
<path id="Vector_22" d="M89.2999 37.2096C88.1799 37.2096 87.2199 36.9696 86.4199 36.4696C85.6199 35.9796 84.9999 35.2996 84.5699 34.4296C84.1399 33.5596 83.9299 32.5496 83.9299 31.4096C83.9299 30.2696 84.1499 29.2496 84.5799 28.3796C85.0099 27.5096 85.6299 26.8296 86.4299 26.3396C87.2299 25.8496 88.1799 25.5996 89.2899 25.5996C90.2399 25.5996 91.0799 25.7796 91.7899 26.1296C92.4999 26.4796 93.0699 26.9896 93.4899 27.6296C93.9099 28.2696 94.1399 29.0296 94.1799 29.8996H91.3199C91.2399 29.3396 91.0299 28.8896 90.6799 28.5396C90.3399 28.1996 89.8899 28.0196 89.3299 28.0196C88.8599 28.0196 88.4499 28.1496 88.0999 28.4096C87.7499 28.6696 87.4799 29.0496 87.2899 29.5496C87.0999 30.0496 86.9999 30.6496 86.9999 31.3596C86.9999 32.0696 87.0999 32.6896 87.2899 33.1896C87.4799 33.6896 87.7499 34.0796 88.0999 34.3396C88.4499 34.5996 88.8599 34.7296 89.3299 34.7296C89.6799 34.7296 89.9899 34.6596 90.2599 34.5096C90.5399 34.3596 90.7699 34.1496 90.9499 33.8696C91.1299 33.5896 91.2499 33.2496 91.3099 32.8596H94.1699C94.1199 33.7196 93.8999 34.4696 93.4899 35.1196C93.0899 35.7696 92.5299 36.2796 91.8199 36.6496C91.1099 37.0196 90.2699 37.1996 89.2999 37.1996V37.2096Z" fill="#7CC4FA"/>
<path id="Vector_23" d="M101.16 37.2094C100.06 37.2094 99.1 36.9694 98.3 36.4794C97.5 35.9894 96.88 35.3194 96.44 34.4494C96 33.5794 95.79 32.5694 95.79 31.4194C95.79 30.2694 96.01 29.2394 96.44 28.3694C96.88 27.4994 97.49 26.8194 98.3 26.3394C99.1 25.8594 100.06 25.6094 101.16 25.6094C102.26 25.6094 103.22 25.8494 104.02 26.3394C104.82 26.8294 105.44 27.4994 105.88 28.3694C106.32 29.2394 106.53 30.2594 106.53 31.4194C106.53 32.5794 106.31 33.5794 105.88 34.4494C105.44 35.3194 104.83 35.9994 104.02 36.4794C103.22 36.9594 102.26 37.2094 101.16 37.2094ZM101.17 34.7994C101.67 34.7994 102.09 34.6494 102.43 34.3594C102.77 34.0694 103.02 33.6594 103.19 33.1494C103.36 32.6394 103.45 32.0494 103.45 31.3994C103.45 30.7494 103.36 30.1594 103.19 29.6494C103.02 29.1394 102.76 28.7294 102.43 28.4394C102.09 28.1394 101.68 27.9894 101.17 27.9894C100.66 27.9894 100.24 28.1394 99.9 28.4394C99.56 28.7394 99.3001 29.1394 99.1301 29.6494C98.9601 30.1594 98.87 30.7494 98.87 31.3994C98.87 32.0494 98.9601 32.6394 99.1301 33.1494C99.3001 33.6594 99.56 34.0694 99.9 34.3594C100.24 34.6594 100.67 34.7994 101.17 34.7994Z" fill="#7CC4FA"/>
<path id="Vector_24" d="M108.28 36.9898V25.7498H111.16V27.7298H111.29C111.52 27.0698 111.9 26.5498 112.43 26.1698C112.96 25.7898 113.59 25.5998 114.33 25.5998C115.07 25.5998 115.71 25.7898 116.24 26.1698C116.77 26.5498 117.12 27.0698 117.29 27.7198H117.4C117.62 27.0798 118.03 26.5598 118.61 26.1698C119.19 25.7798 119.89 25.5898 120.69 25.5898C121.71 25.5898 122.54 25.9198 123.17 26.5898C123.81 27.2598 124.13 28.1998 124.13 29.4198V36.9798H121.11V30.0398C121.11 29.4198 120.95 28.9498 120.63 28.6398C120.31 28.3298 119.91 28.1698 119.42 28.1698C118.87 28.1698 118.44 28.3498 118.13 28.7098C117.82 29.0698 117.67 29.5398 117.67 30.1298V36.9898H114.74V29.9798C114.74 29.4298 114.59 28.9898 114.28 28.6598C113.98 28.3298 113.57 28.1698 113.08 28.1698C112.74 28.1698 112.44 28.2598 112.17 28.4298C111.9 28.5998 111.69 28.8398 111.54 29.1498C111.38 29.4598 111.31 29.8198 111.31 30.2398V36.9898H108.28Z" fill="#7CC4FA"/>
</g>
</g>
</svg>
